<mxfile host="app.diagrams.net" modified="2022-07-03T11:35:50.174Z" agent="5.0 (Windows NT 10.0; Win64; x64) AppleWebKit/537.36 (KHTML, like Gecko) Chrome/103.0.0.0 Safari/537.36" etag="lPJ0tJ4gll4B18yrtiNK" version="19.0.3" type="github">
  <diagram id="jE26jxXe5YH31CJZeTDk" name="Page-1">
    <mxGraphModel dx="996" dy="608" grid="1" gridSize="10" guides="1" tooltips="1" connect="1" arrows="1" fold="1" page="1" pageScale="1" pageWidth="850" pageHeight="1100" math="0" shadow="0">
      <root>
        <mxCell id="0" />
        <mxCell id="1" parent="0" />
        <mxCell id="KsaErcmCSFaaKNWz6VW0-4" value="" style="edgeStyle=orthogonalEdgeStyle;rounded=0;orthogonalLoop=1;jettySize=auto;html=1;" edge="1" parent="1" source="KsaErcmCSFaaKNWz6VW0-2" target="KsaErcmCSFaaKNWz6VW0-3">
          <mxGeometry relative="1" as="geometry" />
        </mxCell>
        <mxCell id="KsaErcmCSFaaKNWz6VW0-2" value="&lt;div style=&quot;&quot;&gt;&lt;ol&gt;&lt;li&gt;&lt;b style=&quot;background-color: initial;&quot;&gt;General Requirements&lt;/b&gt;&lt;/li&gt;&lt;li&gt;&lt;b style=&quot;background-color: initial;&quot;&gt;Specific Requirements&lt;/b&gt;&lt;/li&gt;&lt;li&gt;&lt;b style=&quot;background-color: initial;&quot;&gt;Components Architecture&lt;/b&gt;&lt;/li&gt;&lt;li&gt;&lt;b style=&quot;background-color: initial;&quot;&gt;Data Entities&lt;/b&gt;&lt;/li&gt;&lt;li&gt;&lt;b style=&quot;background-color: initial;&quot;&gt;Data API&lt;/b&gt;&lt;/li&gt;&lt;li&gt;&lt;b style=&quot;background-color: initial;&quot;&gt;Data Store&lt;/b&gt;&lt;/li&gt;&lt;li&gt;&lt;b style=&quot;background-color: initial;&quot;&gt;Infinite Scroll&lt;/b&gt;&lt;/li&gt;&lt;li&gt;&lt;b style=&quot;background-color: initial;&quot;&gt;Optimization&lt;/b&gt;&lt;/li&gt;&lt;li&gt;&lt;b style=&quot;background-color: initial;&quot;&gt;Accessibility&lt;/b&gt;&lt;/li&gt;&lt;/ol&gt;&lt;/div&gt;" style="rounded=0;whiteSpace=wrap;html=1;align=left;" vertex="1" parent="1">
          <mxGeometry x="10" y="40" width="200" height="130" as="geometry" />
        </mxCell>
        <mxCell id="KsaErcmCSFaaKNWz6VW0-3" value="&lt;ol&gt;&lt;li&gt;News Feed&lt;/li&gt;&lt;li&gt;Infinite Scroll, Feed load&lt;/li&gt;&lt;li&gt;User Interactions Like, Comment, Share&lt;/li&gt;&lt;li&gt;Post status&lt;/li&gt;&lt;/ol&gt;" style="rounded=0;whiteSpace=wrap;html=1;align=left;" vertex="1" parent="1">
          <mxGeometry x="290" y="40" width="200" height="90" as="geometry" />
        </mxCell>
        <mxCell id="KsaErcmCSFaaKNWz6VW0-5" value="" style="rounded=0;whiteSpace=wrap;html=1;" vertex="1" parent="1">
          <mxGeometry x="180" y="240" width="310" height="440" as="geometry" />
        </mxCell>
        <mxCell id="KsaErcmCSFaaKNWz6VW0-6" value="Avatar" style="ellipse;whiteSpace=wrap;html=1;aspect=fixed;" vertex="1" parent="1">
          <mxGeometry x="200" y="270" width="50" height="50" as="geometry" />
        </mxCell>
        <mxCell id="KsaErcmCSFaaKNWz6VW0-7" value="John Doe" style="rounded=0;whiteSpace=wrap;html=1;" vertex="1" parent="1">
          <mxGeometry x="260" y="265" width="210" height="60" as="geometry" />
        </mxCell>
        <mxCell id="KsaErcmCSFaaKNWz6VW0-8" value="Content, Images, Videos" style="rounded=0;whiteSpace=wrap;html=1;" vertex="1" parent="1">
          <mxGeometry x="200" y="340" width="270" height="60" as="geometry" />
        </mxCell>
        <mxCell id="KsaErcmCSFaaKNWz6VW0-16" value="" style="edgeStyle=orthogonalEdgeStyle;rounded=0;orthogonalLoop=1;jettySize=auto;html=1;" edge="1" parent="1" source="KsaErcmCSFaaKNWz6VW0-9" target="KsaErcmCSFaaKNWz6VW0-15">
          <mxGeometry relative="1" as="geometry" />
        </mxCell>
        <mxCell id="KsaErcmCSFaaKNWz6VW0-9" value="Like" style="rounded=1;whiteSpace=wrap;html=1;" vertex="1" parent="1">
          <mxGeometry x="200" y="440" width="60" height="30" as="geometry" />
        </mxCell>
        <mxCell id="KsaErcmCSFaaKNWz6VW0-10" value="Comment" style="rounded=1;whiteSpace=wrap;html=1;" vertex="1" parent="1">
          <mxGeometry x="300" y="440" width="70" height="30" as="geometry" />
        </mxCell>
        <mxCell id="KsaErcmCSFaaKNWz6VW0-11" value="Share" style="rounded=1;whiteSpace=wrap;html=1;" vertex="1" parent="1">
          <mxGeometry x="400" y="440" width="70" height="30" as="geometry" />
        </mxCell>
        <mxCell id="KsaErcmCSFaaKNWz6VW0-12" style="edgeStyle=orthogonalEdgeStyle;rounded=0;orthogonalLoop=1;jettySize=auto;html=1;exitX=0.5;exitY=1;exitDx=0;exitDy=0;" edge="1" parent="1" source="KsaErcmCSFaaKNWz6VW0-5" target="KsaErcmCSFaaKNWz6VW0-5">
          <mxGeometry relative="1" as="geometry" />
        </mxCell>
        <mxCell id="KsaErcmCSFaaKNWz6VW0-13" value="Comments" style="rounded=0;whiteSpace=wrap;html=1;" vertex="1" parent="1">
          <mxGeometry x="230" y="500" width="240" height="60" as="geometry" />
        </mxCell>
        <mxCell id="KsaErcmCSFaaKNWz6VW0-14" value="Reply Comment" style="rounded=0;whiteSpace=wrap;html=1;" vertex="1" parent="1">
          <mxGeometry x="250" y="570" width="220" height="50" as="geometry" />
        </mxCell>
        <mxCell id="KsaErcmCSFaaKNWz6VW0-15" value="Reaction Component&lt;br&gt;Like, Love, Care, Dislike" style="rounded=0;whiteSpace=wrap;html=1;" vertex="1" parent="1">
          <mxGeometry x="20" y="425" width="120" height="60" as="geometry" />
        </mxCell>
        <mxCell id="KsaErcmCSFaaKNWz6VW0-17" value="&lt;b&gt;Story Component&lt;/b&gt;" style="text;html=1;align=center;verticalAlign=middle;resizable=0;points=[];autosize=1;strokeColor=none;fillColor=none;" vertex="1" parent="1">
          <mxGeometry x="270" y="200" width="120" height="20" as="geometry" />
        </mxCell>
        <mxCell id="KsaErcmCSFaaKNWz6VW0-18" value="&lt;span style=&quot;&quot;&gt;Avatar&lt;/span&gt;" style="ellipse;whiteSpace=wrap;html=1;" vertex="1" parent="1">
          <mxGeometry x="185" y="507.5" width="40" height="45" as="geometry" />
        </mxCell>
        <mxCell id="KsaErcmCSFaaKNWz6VW0-19" value="&lt;span style=&quot;&quot;&gt;Avatar&lt;/span&gt;" style="ellipse;whiteSpace=wrap;html=1;" vertex="1" parent="1">
          <mxGeometry x="200" y="575" width="40" height="45" as="geometry" />
        </mxCell>
        <mxCell id="KsaErcmCSFaaKNWz6VW0-20" value="&lt;b&gt;Component Architecture&lt;/b&gt;" style="text;html=1;align=center;verticalAlign=middle;resizable=0;points=[];autosize=1;strokeColor=none;fillColor=none;" vertex="1" parent="1">
          <mxGeometry x="660" y="200" width="160" height="20" as="geometry" />
        </mxCell>
        <mxCell id="KsaErcmCSFaaKNWz6VW0-28" value="" style="edgeStyle=orthogonalEdgeStyle;rounded=0;orthogonalLoop=1;jettySize=auto;html=1;" edge="1" parent="1" source="KsaErcmCSFaaKNWz6VW0-21" target="KsaErcmCSFaaKNWz6VW0-22">
          <mxGeometry relative="1" as="geometry" />
        </mxCell>
        <mxCell id="KsaErcmCSFaaKNWz6VW0-21" value="News Feed" style="rounded=1;whiteSpace=wrap;html=1;" vertex="1" parent="1">
          <mxGeometry x="685" y="240" width="120" height="60" as="geometry" />
        </mxCell>
        <mxCell id="KsaErcmCSFaaKNWz6VW0-29" value="" style="edgeStyle=orthogonalEdgeStyle;rounded=0;orthogonalLoop=1;jettySize=auto;html=1;" edge="1" parent="1" source="KsaErcmCSFaaKNWz6VW0-22" target="KsaErcmCSFaaKNWz6VW0-24">
          <mxGeometry relative="1" as="geometry" />
        </mxCell>
        <mxCell id="KsaErcmCSFaaKNWz6VW0-31" style="edgeStyle=orthogonalEdgeStyle;rounded=0;orthogonalLoop=1;jettySize=auto;html=1;" edge="1" parent="1" source="KsaErcmCSFaaKNWz6VW0-22">
          <mxGeometry relative="1" as="geometry">
            <mxPoint x="600" y="420" as="targetPoint" />
          </mxGeometry>
        </mxCell>
        <mxCell id="KsaErcmCSFaaKNWz6VW0-32" style="edgeStyle=orthogonalEdgeStyle;rounded=0;orthogonalLoop=1;jettySize=auto;html=1;entryX=0.75;entryY=0;entryDx=0;entryDy=0;" edge="1" parent="1" source="KsaErcmCSFaaKNWz6VW0-22" target="KsaErcmCSFaaKNWz6VW0-25">
          <mxGeometry relative="1" as="geometry" />
        </mxCell>
        <mxCell id="KsaErcmCSFaaKNWz6VW0-33" style="edgeStyle=orthogonalEdgeStyle;rounded=0;orthogonalLoop=1;jettySize=auto;html=1;exitX=1;exitY=0.25;exitDx=0;exitDy=0;" edge="1" parent="1" source="KsaErcmCSFaaKNWz6VW0-22" target="KsaErcmCSFaaKNWz6VW0-26">
          <mxGeometry relative="1" as="geometry" />
        </mxCell>
        <mxCell id="KsaErcmCSFaaKNWz6VW0-22" value="Story" style="rounded=1;whiteSpace=wrap;html=1;" vertex="1" parent="1">
          <mxGeometry x="685" y="330" width="120" height="60" as="geometry" />
        </mxCell>
        <mxCell id="KsaErcmCSFaaKNWz6VW0-23" value="Story Card" style="rounded=1;whiteSpace=wrap;html=1;" vertex="1" parent="1">
          <mxGeometry x="580" y="425" width="120" height="60" as="geometry" />
        </mxCell>
        <mxCell id="KsaErcmCSFaaKNWz6VW0-34" value="" style="edgeStyle=orthogonalEdgeStyle;rounded=0;orthogonalLoop=1;jettySize=auto;html=1;" edge="1" parent="1" source="KsaErcmCSFaaKNWz6VW0-24" target="KsaErcmCSFaaKNWz6VW0-27">
          <mxGeometry relative="1" as="geometry" />
        </mxCell>
        <mxCell id="KsaErcmCSFaaKNWz6VW0-24" value="Comments List" style="rounded=1;whiteSpace=wrap;html=1;" vertex="1" parent="1">
          <mxGeometry x="710" y="425" width="120" height="60" as="geometry" />
        </mxCell>
        <mxCell id="KsaErcmCSFaaKNWz6VW0-35" style="edgeStyle=orthogonalEdgeStyle;rounded=0;orthogonalLoop=1;jettySize=auto;html=1;" edge="1" parent="1" source="KsaErcmCSFaaKNWz6VW0-25" target="KsaErcmCSFaaKNWz6VW0-27">
          <mxGeometry relative="1" as="geometry">
            <Array as="points">
              <mxPoint x="910" y="550" />
            </Array>
          </mxGeometry>
        </mxCell>
        <mxCell id="KsaErcmCSFaaKNWz6VW0-25" value="Comment Input" style="rounded=1;whiteSpace=wrap;html=1;" vertex="1" parent="1">
          <mxGeometry x="840" y="425" width="120" height="60" as="geometry" />
        </mxCell>
        <mxCell id="KsaErcmCSFaaKNWz6VW0-26" value="Reactions By Users" style="rounded=1;whiteSpace=wrap;html=1;" vertex="1" parent="1">
          <mxGeometry x="970" y="425" width="120" height="60" as="geometry" />
        </mxCell>
        <mxCell id="KsaErcmCSFaaKNWz6VW0-27" value="Comments" style="rounded=1;whiteSpace=wrap;html=1;" vertex="1" parent="1">
          <mxGeometry x="680" y="520" width="120" height="60" as="geometry" />
        </mxCell>
        <mxCell id="KsaErcmCSFaaKNWz6VW0-36" value="&lt;b&gt;Data Model&lt;/b&gt;" style="text;html=1;align=center;verticalAlign=middle;resizable=0;points=[];autosize=1;strokeColor=none;fillColor=none;" vertex="1" parent="1">
          <mxGeometry x="620" y="660" width="80" height="20" as="geometry" />
        </mxCell>
        <mxCell id="KsaErcmCSFaaKNWz6VW0-37" value="&lt;b&gt;Story: {&lt;br&gt;id: string,&lt;br&gt;userId: string,&lt;br&gt;comments: comments[],&lt;br&gt;media: media[],&lt;br&gt;dateCreatedOn: TimeStamp,&lt;br&gt;content: string,&lt;br&gt;userId: String,&lt;br&gt;}&lt;br&gt;&lt;br&gt;&lt;/b&gt;" style="text;html=1;align=left;verticalAlign=middle;resizable=0;points=[];autosize=1;strokeColor=none;fillColor=none;" vertex="1" parent="1">
          <mxGeometry x="600" y="695" width="180" height="150" as="geometry" />
        </mxCell>
        <mxCell id="KsaErcmCSFaaKNWz6VW0-38" value="&lt;b&gt;comments: {&lt;br&gt;id: string,&lt;br&gt;userId: string,&lt;br&gt;content: string&lt;br&gt;date: timeStamp&lt;br&gt;}&lt;/b&gt;" style="text;html=1;align=left;verticalAlign=middle;resizable=0;points=[];autosize=1;strokeColor=none;fillColor=none;" vertex="1" parent="1">
          <mxGeometry x="840" y="675" width="110" height="90" as="geometry" />
        </mxCell>
        <mxCell id="KsaErcmCSFaaKNWz6VW0-39" value="&lt;b&gt;media: {&lt;br&gt;type: String | Video,&lt;br&gt;url: string&lt;br&gt;}&lt;/b&gt;" style="text;html=1;align=left;verticalAlign=middle;resizable=0;points=[];autosize=1;strokeColor=none;fillColor=none;" vertex="1" parent="1">
          <mxGeometry x="840" y="785" width="130" height="60" as="geometry" />
        </mxCell>
      </root>
    </mxGraphModel>
  </diagram>
</mxfile>
